<mxfile host="65bd71144e">
    <diagram id="ngTc_YEDZs39Cj6EGkCH" name="Page-1">
        <mxGraphModel dx="1054" dy="583" grid="1" gridSize="10" guides="1" tooltips="1" connect="1" arrows="1" fold="1" page="1" pageScale="1" pageWidth="850" pageHeight="1100" math="0" shadow="0">
            <root>
                <mxCell id="0"/>
                <mxCell id="1" parent="0"/>
                <mxCell id="42" value="" style="rounded=0;whiteSpace=wrap;html=1;" vertex="1" parent="1">
                    <mxGeometry x="10" y="200" width="820" height="430" as="geometry"/>
                </mxCell>
                <mxCell id="38" style="edgeStyle=elbowEdgeStyle;html=1;exitX=0.25;exitY=1;exitDx=0;exitDy=0;elbow=vertical;" edge="1" parent="1" source="2">
                    <mxGeometry relative="1" as="geometry">
                        <mxPoint x="420" y="550" as="targetPoint"/>
                        <Array as="points">
                            <mxPoint x="370" y="450"/>
                            <mxPoint x="360" y="450"/>
                        </Array>
                    </mxGeometry>
                </mxCell>
                <mxCell id="2" value="" style="rounded=0;whiteSpace=wrap;html=1;" vertex="1" parent="1">
                    <mxGeometry x="230" y="240" width="370" height="180" as="geometry"/>
                </mxCell>
                <mxCell id="8" value="" style="endArrow=none;html=1;" edge="1" parent="1">
                    <mxGeometry width="50" height="50" relative="1" as="geometry">
                        <mxPoint x="230" y="330" as="sourcePoint"/>
                        <mxPoint x="600" y="330" as="targetPoint"/>
                        <Array as="points">
                            <mxPoint x="440" y="330"/>
                        </Array>
                    </mxGeometry>
                </mxCell>
                <mxCell id="10" value="usernames" style="text;html=1;align=center;verticalAlign=middle;resizable=0;points=[];autosize=1;strokeColor=none;fillColor=none;" vertex="1" parent="1">
                    <mxGeometry x="375" y="340" width="80" height="30" as="geometry"/>
                </mxCell>
                <mxCell id="11" value="" style="endArrow=none;html=1;" edge="1" parent="1">
                    <mxGeometry width="50" height="50" relative="1" as="geometry">
                        <mxPoint x="230" y="280" as="sourcePoint"/>
                        <mxPoint x="600" y="280" as="targetPoint"/>
                        <Array as="points">
                            <mxPoint x="440" y="280"/>
                        </Array>
                    </mxGeometry>
                </mxCell>
                <mxCell id="13" value="website_users" style="text;html=1;strokeColor=none;fillColor=none;align=center;verticalAlign=middle;whiteSpace=wrap;rounded=0;" vertex="1" parent="1">
                    <mxGeometry x="250" y="250" width="60" height="30" as="geometry"/>
                </mxCell>
                <mxCell id="14" value="" style="endArrow=none;html=1;" edge="1" parent="1">
                    <mxGeometry width="50" height="50" relative="1" as="geometry">
                        <mxPoint x="230" y="380" as="sourcePoint"/>
                        <mxPoint x="600" y="380" as="targetPoint"/>
                        <Array as="points">
                            <mxPoint x="440" y="380"/>
                        </Array>
                    </mxGeometry>
                </mxCell>
                <mxCell id="15" value="websites" style="text;html=1;align=center;verticalAlign=middle;resizable=0;points=[];autosize=1;strokeColor=none;fillColor=none;" vertex="1" parent="1">
                    <mxGeometry x="380" y="290" width="70" height="30" as="geometry"/>
                </mxCell>
                <mxCell id="16" value="username + website hash (ID)" style="text;html=1;align=center;verticalAlign=middle;resizable=0;points=[];autosize=1;strokeColor=none;fillColor=none;" vertex="1" parent="1">
                    <mxGeometry x="325" y="390" width="180" height="30" as="geometry"/>
                </mxCell>
                <mxCell id="18" value="" style="rounded=0;whiteSpace=wrap;html=1;" vertex="1" parent="1">
                    <mxGeometry x="20" y="470" width="370" height="140" as="geometry"/>
                </mxCell>
                <mxCell id="19" value="" style="endArrow=none;html=1;" edge="1" parent="1">
                    <mxGeometry width="50" height="50" relative="1" as="geometry">
                        <mxPoint x="20" y="560" as="sourcePoint"/>
                        <mxPoint x="390" y="560" as="targetPoint"/>
                        <Array as="points">
                            <mxPoint x="230" y="560"/>
                        </Array>
                    </mxGeometry>
                </mxCell>
                <mxCell id="21" value="" style="endArrow=none;html=1;" edge="1" parent="1">
                    <mxGeometry width="50" height="50" relative="1" as="geometry">
                        <mxPoint x="20" y="510" as="sourcePoint"/>
                        <mxPoint x="390" y="510" as="targetPoint"/>
                        <Array as="points">
                            <mxPoint x="230" y="510"/>
                        </Array>
                    </mxGeometry>
                </mxCell>
                <mxCell id="22" value="e_passwords" style="text;html=1;strokeColor=none;fillColor=none;align=center;verticalAlign=middle;whiteSpace=wrap;rounded=0;" vertex="1" parent="1">
                    <mxGeometry x="40" y="480" width="60" height="30" as="geometry"/>
                </mxCell>
                <mxCell id="24" value="passwords (encrypted)" style="text;html=1;align=center;verticalAlign=middle;resizable=0;points=[];autosize=1;strokeColor=none;fillColor=none;" vertex="1" parent="1">
                    <mxGeometry x="135" y="520" width="140" height="30" as="geometry"/>
                </mxCell>
                <mxCell id="25" value="username + website hash (ID)" style="text;html=1;align=center;verticalAlign=middle;resizable=0;points=[];autosize=1;strokeColor=none;fillColor=none;" vertex="1" parent="1">
                    <mxGeometry x="115" y="570" width="180" height="30" as="geometry"/>
                </mxCell>
                <mxCell id="26" value="" style="rounded=0;whiteSpace=wrap;html=1;" vertex="1" parent="1">
                    <mxGeometry x="450" y="470" width="370" height="140" as="geometry"/>
                </mxCell>
                <mxCell id="27" value="" style="endArrow=none;html=1;" edge="1" parent="1">
                    <mxGeometry width="50" height="50" relative="1" as="geometry">
                        <mxPoint x="450" y="560" as="sourcePoint"/>
                        <mxPoint x="820" y="560" as="targetPoint"/>
                        <Array as="points">
                            <mxPoint x="660" y="560"/>
                        </Array>
                    </mxGeometry>
                </mxCell>
                <mxCell id="29" value="" style="endArrow=none;html=1;" edge="1" parent="1">
                    <mxGeometry width="50" height="50" relative="1" as="geometry">
                        <mxPoint x="450" y="510" as="sourcePoint"/>
                        <mxPoint x="820" y="510" as="targetPoint"/>
                        <Array as="points">
                            <mxPoint x="660" y="510"/>
                        </Array>
                    </mxGeometry>
                </mxCell>
                <mxCell id="30" value="e_keys" style="text;html=1;strokeColor=none;fillColor=none;align=center;verticalAlign=middle;whiteSpace=wrap;rounded=0;" vertex="1" parent="1">
                    <mxGeometry x="470" y="480" width="60" height="30" as="geometry"/>
                </mxCell>
                <mxCell id="32" value="keys (encrypted)" style="text;html=1;align=center;verticalAlign=middle;resizable=0;points=[];autosize=1;strokeColor=none;fillColor=none;" vertex="1" parent="1">
                    <mxGeometry x="580" y="520" width="110" height="30" as="geometry"/>
                </mxCell>
                <mxCell id="33" value="username + website hash (ID)" style="text;html=1;align=center;verticalAlign=middle;resizable=0;points=[];autosize=1;strokeColor=none;fillColor=none;" vertex="1" parent="1">
                    <mxGeometry x="545" y="570" width="180" height="30" as="geometry"/>
                </mxCell>
                <mxCell id="39" value="" style="edgeStyle=segmentEdgeStyle;endArrow=classic;html=1;curved=0;rounded=0;endSize=8;startSize=8;elbow=vertical;" edge="1" parent="1">
                    <mxGeometry width="50" height="50" relative="1" as="geometry">
                        <mxPoint x="420" y="550" as="sourcePoint"/>
                        <mxPoint x="390" y="590" as="targetPoint"/>
                        <Array as="points">
                            <mxPoint x="420" y="590"/>
                            <mxPoint x="390" y="590"/>
                        </Array>
                    </mxGeometry>
                </mxCell>
                <mxCell id="40" value="" style="edgeStyle=segmentEdgeStyle;endArrow=classic;html=1;curved=0;rounded=0;endSize=8;startSize=8;elbow=vertical;" edge="1" parent="1">
                    <mxGeometry width="50" height="50" relative="1" as="geometry">
                        <mxPoint x="420" y="550" as="sourcePoint"/>
                        <mxPoint x="450" y="590" as="targetPoint"/>
                        <Array as="points">
                            <mxPoint x="420" y="590"/>
                        </Array>
                    </mxGeometry>
                </mxCell>
                <mxCell id="43" value="generated_db" style="text;html=1;align=center;verticalAlign=middle;resizable=0;points=[];autosize=1;strokeColor=none;fillColor=none;" vertex="1" parent="1">
                    <mxGeometry x="20" y="210" width="100" height="30" as="geometry"/>
                </mxCell>
            </root>
        </mxGraphModel>
    </diagram>
</mxfile>